<svg xmlns="http://www.w3.org/2000/svg" viewBox="0 0 79.1 80.18"><title>资源 63</title><path d="M34.53 80.18q16.52 0 26-7Q70 66.27 70 51.54V28h9.1L59.15 0 39.21 28h9.06v21.25q0 7.53-3.11 10.64-3.1 3.27-10.47 3.27t-10.47-3.27Q21 56.77 20.94 49.25V0H0v50.72c0 10.05 5.3 16.92 10 21.44a32.44 32.44 0 0 0 10.31 5.73 40.12 40.12 0 0 0 14.22 2.29z" fill="#1d2e3d"/><path d="M34.53 80.18q16.52 0 26-7c-20.42 8.5-39.6-.72-39.6-23.89V0H0v50.72c0 10.05 5.3 16.92 10 21.44a32.44 32.44 0 0 0 10.31 5.73 40.12 40.12 0 0 0 14.22 2.29z" fill="#0D6E6E"/></svg>